<svg xmlns="http://www.w3.org/2000/svg" viewBox="0 0 800 1000">
  <rect width="800" height="1000" fill="#F1F3F6"/>
  <rect width="800" height="90" fill="#FFFFFF"/>
  <circle cx="60" cy="45" r="16" fill="#D8DDE4"/>
  <rect x="100" y="30" width="300" height="30" rx="15" fill="#E4E8ED"/>
  <rect x="40" y="140" width="720" height="120" rx="16" fill="#FFFFFF"/>
  <rect x="70" y="170" width="360" height="22" rx="11" fill="#C9D0D9"/>
  <rect x="70" y="206" width="520" height="18" rx="9" fill="#E4E8ED"/>
  <rect x="40" y="290" width="720" height="120" rx="16" fill="#FFFFFF"/>
  <rect x="70" y="320" width="300" height="22" rx="11" fill="#C9D0D9"/>
  <rect x="70" y="356" width="560" height="18" rx="9" fill="#E4E8ED"/>
  <rect x="40" y="440" width="720" height="120" rx="16" fill="#FFFFFF"/>
  <rect x="70" y="470" width="420" height="22" rx="11" fill="#C9D0D9"/>
  <rect x="70" y="506" width="480" height="18" rx="9" fill="#E4E8ED"/>
  <rect x="40" y="590" width="720" height="120" rx="16" fill="#FFFFFF"/>
  <rect x="70" y="620" width="340" height="22" rx="11" fill="#C9D0D9"/>
  <rect x="70" y="656" width="500" height="18" rx="9" fill="#E4E8ED"/>
  <rect x="250" y="880" width="300" height="64" rx="32" fill="#4A90E2"/>
</svg>
